<svg xmlns="http://www.w3.org/2000/svg" viewBox="0 0 15 11" fill="none" shape-rendering="crispEdges">
  <rect x="3" y="1" width="9" height="1" fill="#d9815d"/>
  <rect x="3" y="2" width="9" height="1" fill="#d9815d"/>
  <rect x="3" y="3" width="1" height="1" fill="#d9815d"/>
  <rect x="4" y="3" width="1" height="1" fill="#1a1a1a"/>
  <rect x="5" y="3" width="5" height="1" fill="#d9815d"/>
  <rect x="10" y="3" width="1" height="1" fill="#1a1a1a"/>
  <rect x="11" y="3" width="1" height="1" fill="#d9815d"/>
  <rect x="1" y="4" width="13" height="1" fill="#d9815d"/>
  <rect x="1" y="5" width="13" height="1" fill="#d9815d"/>
  <rect x="3" y="6" width="9" height="1" fill="#d9815d"/>
  <rect x="3" y="7" width="9" height="1" fill="#d9815d"/>
  <rect x="3" y="8" width="1" height="3" fill="#d9815d"/>
  <rect x="5" y="8" width="1" height="3" fill="#d9815d"/>
  <rect x="9" y="8" width="1" height="3" fill="#d9815d"/>
  <rect x="11" y="8" width="1" height="3" fill="#d9815d"/>
</svg>
